<svg xmlns="http://www.w3.org/2000/svg" width="202" height="30" viewBox="0 0 202 30" fill="none"><path d="M15.8824 0L21.2811 9.20457L31.7647 11.459L24.6176 19.4021L25.6982 30L15.8824 25.7046L6.06652 30L7.14706 19.4021L0 11.459L10.4836 9.20457L15.8824 0Z" fill="#FFCB45"></path><path d="M58.2353 0L63.634 9.20457L74.1176 11.459L66.9706 19.4021L68.0511 30L58.2353 25.7046L48.4195 30L49.5 19.4021L42.3529 11.459L52.8366 9.20457L58.2353 0Z" fill="#FFCB45"></path><path d="M100.588 0L105.987 9.20457L116.471 11.459L109.324 19.4021L110.404 30L100.588 25.7046L90.7724 30L91.8529 19.4021L84.7059 11.459L95.1895 9.20457L100.588 0Z" fill="#FFCB45"></path><path d="M142.941 0L148.34 9.20457L158.824 11.459L151.676 19.4021L152.757 30L142.941 25.7046L133.125 30L134.206 19.4021L127.059 11.459L137.542 9.20457L142.941 0Z" fill="#FFCB45"></path><path d="M185.294 0L190.693 9.20457L201.176 11.459L194.029 19.4021L195.11 30L185.294 25.7046L175.478 30L176.559 19.4021L169.412 11.459L179.895 9.20457L185.294 0Z" fill="#FFCB45"></path></svg>