<svg xmlns="http://www.w3.org/2000/svg" width="36" height="35" viewBox="0 0 36 35" fill="none"><path d="M34.3379 7.79942C34.1342 4.2102 31.2742 1.35013 27.685 1.14648C21.2585 0.781901 14.7412 0.781901 8.3154 1.14648C4.72618 1.35014 1.86612 4.2102 1.66211 7.79942C1.29753 14.2259 1.29753 20.7428 1.66211 27.1693C1.86612 30.7585 4.72618 33.6186 8.3154 33.8223C14.7581 34.1878 21.2426 34.1877 27.685 33.8223C31.2742 33.6186 34.1342 30.7585 34.3379 27.1693C34.7025 20.7428 34.7025 14.2259 34.3379 7.79942Z" fill="url(#paint0_linear_45_537)"></path><path d="M28.245 15.0066C27.5669 14.3285 26.4586 14.3285 25.7659 15.0066L21.4784 19.3014C21.4857 19.3525 21.4857 19.4108 21.4857 19.4691C21.4857 21.19 20.0346 22.641 18.3211 22.641H17.5555C17.2492 22.641 17.0086 22.3931 17.0086 22.0941C17.0086 21.7879 17.2492 21.5472 17.5555 21.5472H18.3211C19.4376 21.5472 20.392 20.5816 20.3919 19.4691C20.3919 18.3243 19.4659 17.391 18.3211 17.391H14.9815C14.0627 17.391 13.1878 17.7556 12.5315 18.4118L11.5402 19.3978C10.7339 18.8654 9.63593 18.9547 8.9291 19.6631L7.85244 20.7401C7.04281 21.5494 7.04281 22.8664 7.85173 23.6753C7.85173 23.6753 11.8199 27.6513 11.8272 27.6587C12.5958 28.4288 13.9755 28.4406 14.7603 27.6558L15.8448 26.571C16.3818 26.034 16.5558 25.2863 16.3817 24.6025H20.7273C21.8065 24.6025 22.82 24.1212 23.5128 23.2754L28.3617 17.3473C28.617 17.0364 28.7419 16.6415 28.7413 16.2463C28.7405 15.7904 28.5727 15.3343 28.245 15.0066Z" fill="url(#paint1_linear_45_537)"></path><path d="M24.5625 6.74512C23.4566 6.74512 22.5573 7.64447 22.5573 8.75033C22.5573 9.15875 22.6813 9.53815 22.8918 9.85533L21.0263 12.0391C20.7702 11.9203 20.4879 11.8493 20.1875 11.8493C19.806 11.8493 19.4527 11.9621 19.1487 12.1477L17.5962 10.3765C17.7332 10.1054 17.8177 9.80349 17.8177 9.47949C17.8177 8.37364 16.9183 7.47428 15.8125 7.47428C14.7066 7.47428 13.8073 8.37364 13.8073 9.47949C13.8073 9.97091 13.9918 10.4156 14.2862 10.7647L12.051 13.4137C11.8565 13.3506 11.6528 13.3076 11.4375 13.3076C10.3316 13.3076 9.43228 14.207 9.43228 15.3128C9.43228 16.4187 10.3316 17.318 11.4375 17.318C12.5433 17.318 13.4427 16.4187 13.4427 15.3128C13.4427 14.8214 13.2582 14.3767 12.9638 14.0276L15.1989 11.3786C15.3935 11.4417 15.5971 11.4847 15.8125 11.4847C16.194 11.4847 16.5473 11.3719 16.8512 11.1863L18.4037 12.9575C18.2667 13.2286 18.1823 13.5305 18.1823 13.8545C18.1823 14.9603 19.0816 15.8597 20.1875 15.8597C21.2933 15.8597 22.1927 14.9603 22.1927 13.8545C22.1927 13.4461 22.0687 13.0667 21.8582 12.7495L23.7237 10.5657C23.9797 10.6845 24.2621 10.7555 24.5625 10.7555C25.6683 10.7555 26.5677 9.85618 26.5677 8.75033C26.5677 7.64447 25.6683 6.74512 24.5625 6.74512Z" fill="url(#paint2_linear_45_537)"></path><defs><linearGradient id="paint0_linear_45_537" x1="18" y1="1.08613" x2="18" y2="33.7893" gradientUnits="userSpaceOnUse"><stop stop-color="#FFFCD9"></stop><stop offset="0.77808" stop-color="#FFEBA8"></stop><stop offset="1" stop-color="#FFE699"></stop></linearGradient><linearGradient id="paint1_linear_45_537" x1="17.9934" y1="7.05911" x2="17.9934" y2="28.5382" gradientUnits="userSpaceOnUse"><stop stop-color="#FD6700"></stop><stop offset="1" stop-color="#FFCE00"></stop></linearGradient><linearGradient id="paint2_linear_45_537" x1="18" y1="7.05939" x2="18" y2="28.5385" gradientUnits="userSpaceOnUse"><stop stop-color="#FD6700"></stop><stop offset="1" stop-color="#FFCE00"></stop></linearGradient></defs></svg>