<svg width="27" height="30" viewBox="0 0 27 30" fill="none" xmlns="http://www.w3.org/2000/svg">
<g clip-path="url(#clip0_1967_1213)">
<path d="M26.25 4.6875V7.5C26.25 10.0898 20.373 12.1875 13.125 12.1875C5.87695 12.1875 0 10.0898 0 7.5V4.6875C0 2.09766 5.87695 0 13.125 0C20.373 0 26.25 2.09766 26.25 4.6875ZM23.0391 12.5801C24.2578 12.1465 25.377 11.5898 26.25 10.9043V16.875C26.25 19.4648 20.373 21.5625 13.125 21.5625C5.87695 21.5625 0 19.4648 0 16.875V10.9043C0.873047 11.5957 1.99219 12.1465 3.21094 12.5801C5.8418 13.5176 9.3457 14.0625 13.125 14.0625C16.9043 14.0625 20.4082 13.5176 23.0391 12.5801ZM0 20.2793C0.873047 20.9707 1.99219 21.5215 3.21094 21.9551C5.8418 22.8926 9.3457 23.4375 13.125 23.4375C16.9043 23.4375 20.4082 22.8926 23.0391 21.9551C24.2578 21.5215 25.377 20.9648 26.25 20.2793V25.3125C26.25 27.9023 20.373 30 13.125 30C5.87695 30 0 27.9023 0 25.3125V20.2793Z" fill="url(#paint0_linear_1967_1213)"/>
</g>
<defs>
<linearGradient id="paint0_linear_1967_1213" x1="26.25" y1="15" x2="4.14625e-07" y2="15" gradientUnits="userSpaceOnUse">
<stop stop-color="#56CCF2"/>
<stop offset="1" stop-color="#2F80ED"/>
</linearGradient>
<clipPath id="clip0_1967_1213">
<rect width="26.25" height="30" fill="white"/>
</clipPath>
</defs>
</svg>
