<svg width="27" height="30" viewBox="0 0 27 30" fill="none" xmlns="http://www.w3.org/2000/svg">
<g clip-path="url(#clip0_1967_3141)">
<path d="M23.4375 1.875H2.8125C1.25977 1.875 0 3.13477 0 4.6875V25.3125C0 26.8652 1.25977 28.125 2.8125 28.125H23.4375C24.9902 28.125 26.25 26.8652 26.25 25.3125V4.6875C26.25 3.13477 24.9902 1.875 23.4375 1.875ZM14.2852 22.3477C14.2852 24.9023 12.7852 26.0684 10.5996 26.0684C8.625 26.0684 7.48242 25.0488 6.89648 23.8125L8.90625 22.5996C9.29297 23.2852 9.64453 23.8652 10.4941 23.8652C11.3027 23.8652 11.8184 23.5488 11.8184 22.3125V13.9277H14.2852V22.3477ZM20.1211 26.0684C17.8301 26.0684 16.3477 24.9785 15.627 23.5488L17.6367 22.3887C18.1641 23.25 18.8555 23.8887 20.0684 23.8887C21.0879 23.8887 21.7441 23.3789 21.7441 22.6699C21.7441 21.8262 21.0762 21.5273 19.9453 21.0293L19.3301 20.7656C17.5488 20.0098 16.3711 19.0547 16.3711 17.0449C16.3711 15.1934 17.7832 13.7871 19.9805 13.7871C21.5508 13.7871 22.6758 14.332 23.4844 15.7617L21.5625 16.9922C21.1406 16.2363 20.6836 15.9375 19.9746 15.9375C19.2539 15.9375 18.7969 16.3945 18.7969 16.9922C18.7969 17.7305 19.2539 18.0293 20.3145 18.4922L20.9297 18.7559C23.0273 19.6523 24.2051 20.5723 24.2051 22.6348C24.2051 24.8496 22.459 26.0684 20.1211 26.0684Z" fill="url(#paint0_linear_1967_3141)"/>
</g>
<defs>
<linearGradient id="paint0_linear_1967_3141" x1="26.25" y1="15" x2="4.14625e-07" y2="15" gradientUnits="userSpaceOnUse">
<stop stop-color="#56CCF2"/>
<stop offset="1" stop-color="#2F80ED"/>
</linearGradient>
<clipPath id="clip0_1967_3141">
<rect width="26.25" height="30" fill="white"/>
</clipPath>
</defs>
</svg>
