<svg width="19" height="30" viewBox="0 0 19 30" fill="none" xmlns="http://www.w3.org/2000/svg">
<g clip-path="url(#clip0_1967_1844)">
<path d="M15.9375 0H2.8125C1.25977 0 0 1.25977 0 2.8125V27.1875C0 28.7402 1.25977 30 2.8125 30H15.9375C17.4902 30 18.75 28.7402 18.75 27.1875V2.8125C18.75 1.25977 17.4902 0 15.9375 0ZM9.375 28.125C8.33789 28.125 7.5 27.2871 7.5 26.25C7.5 25.2129 8.33789 24.375 9.375 24.375C10.4121 24.375 11.25 25.2129 11.25 26.25C11.25 27.2871 10.4121 28.125 9.375 28.125ZM15.9375 21.7969C15.9375 22.1836 15.6211 22.5 15.2344 22.5H3.51562C3.12891 22.5 2.8125 22.1836 2.8125 21.7969V3.51562C2.8125 3.12891 3.12891 2.8125 3.51562 2.8125H15.2344C15.6211 2.8125 15.9375 3.12891 15.9375 3.51562V21.7969Z" fill="url(#paint0_linear_1967_1844)"/>
</g>
<defs>
<linearGradient id="paint0_linear_1967_1844" x1="18.75" y1="15" x2="2.96161e-07" y2="15" gradientUnits="userSpaceOnUse">
<stop stop-color="#56CCF2"/>
<stop offset="1" stop-color="#2F80ED"/>
</linearGradient>
<clipPath id="clip0_1967_1844">
<rect width="18.75" height="30" fill="white"/>
</clipPath>
</defs>
</svg>
