<svg xmlns="http://www.w3.org/2000/svg" width="36" height="35" viewBox="0 0 36 35" fill="none"><path d="M34.3379 7.8151C34.2404 6.08235 33.5082 4.44618 32.281 3.21899C31.0539 1.99181 29.4177 1.25958 27.685 1.16211C21.2336 0.797526 14.7668 0.797526 8.31545 1.16211C6.58268 1.25963 4.94652 1.99187 3.7193 3.21904C2.49208 4.4462 1.75977 6.08233 1.66217 7.8151C1.29759 14.2666 1.29759 20.7335 1.66217 27.185C1.75977 28.9177 2.49208 30.5539 3.7193 31.781C4.94652 33.0082 6.58269 33.7404 8.31545 33.8379C14.7668 34.2033 21.2336 34.2033 27.685 33.8379C29.4177 33.7404 31.0539 33.0082 32.281 31.7811C33.5082 30.5539 34.2404 28.9177 34.3379 27.185C34.7025 20.7335 34.7025 14.2666 34.3379 7.8151Z" fill="url(#paint0_linear_45_505)"></path><path d="M25.2916 24.2451C24.8566 24.2465 24.4339 24.3896 24.0875 24.6528C23.7411 24.9159 23.4899 25.2848 23.3718 25.7035H19.9198C19.8264 25.3768 19.6514 25.0794 19.4112 24.8391C19.1709 24.5989 18.8735 24.4239 18.5468 24.3305V22.4222H19.6406V18.2295C19.6406 17.7944 19.4677 17.3771 19.1601 17.0694C18.8524 16.7617 18.4351 16.5889 18 16.5889C17.5649 16.5889 17.1476 16.7617 16.8399 17.0694C16.5322 17.3771 16.3593 17.7944 16.3593 18.2295V22.4222H17.4531V24.3305C17.1265 24.4239 16.829 24.5989 16.5888 24.8391C16.3486 25.0794 16.1735 25.3768 16.0801 25.7035H12.6281C12.4961 25.2378 12.2002 24.8356 11.7949 24.5711C11.3896 24.3066 10.9022 24.1976 10.4229 24.2642C9.94349 24.3308 9.50438 24.5686 9.18658 24.9336C8.86878 25.2987 8.69373 25.7663 8.69373 26.2503C8.69373 26.7343 8.86878 27.202 9.18658 27.567C9.50438 27.932 9.94349 28.1698 10.4229 28.2364C10.9022 28.3031 11.3896 28.1941 11.7949 27.9296C12.2002 27.665 12.4961 27.2628 12.6281 26.7972H16.0801C16.1969 27.2166 16.4478 27.5863 16.7945 27.8497C17.1412 28.113 17.5646 28.2556 18 28.2556C18.4354 28.2556 18.8588 28.113 19.2054 27.8497C19.5521 27.5863 19.803 27.2166 19.9198 26.7972H23.3718C23.4743 27.1551 23.6745 27.4772 23.95 27.7275C24.2256 27.9778 24.5654 28.1463 24.9315 28.2141C25.2975 28.2818 25.6751 28.2462 26.022 28.1111C26.3688 27.976 26.6711 27.7468 26.8949 27.4493C27.1187 27.1519 27.2551 26.7979 27.2887 26.4272C27.3223 26.0565 27.2519 25.6837 27.0854 25.3508C26.9188 25.0179 26.6627 24.7381 26.3458 24.5428C26.0289 24.3474 25.6639 24.2444 25.2916 24.2451Z" fill="url(#paint1_linear_45_505)"></path><path d="M23.4688 22.4214C23.9037 22.4207 24.3206 22.2476 24.6281 21.9401C24.9357 21.6326 25.1087 21.2156 25.1094 20.7807V14.2109L18 9.28906L10.8906 14.2109V20.7807C10.8913 21.2156 11.0643 21.6326 11.3719 21.9401C11.6794 22.2476 12.0963 22.4207 12.5312 22.4214H15.2656V18.2286C15.2656 17.5034 15.5537 16.8079 16.0665 16.2952C16.5793 15.7824 17.2748 15.4943 18 15.4943C18.7252 15.4943 19.4207 15.7824 19.9335 16.2952C20.4463 16.8079 20.7344 17.5034 20.7344 18.2286V22.4214H23.4688Z" fill="url(#paint2_linear_45_505)"></path><path d="M18.3112 6.8423C18.2198 6.77902 18.1112 6.74512 18 6.74512C17.8888 6.74512 17.7802 6.77902 17.6888 6.8423L8.20962 13.4048C8.14794 13.4445 8.09487 13.4962 8.05359 13.5569C8.0123 13.6175 7.98365 13.6859 7.96932 13.7578C7.955 13.8298 7.9553 13.9039 7.97021 13.9757C7.98512 14.0476 8.01433 14.1157 8.05611 14.176C8.09788 14.2363 8.15137 14.2876 8.21338 14.3268C8.27539 14.366 8.34465 14.3924 8.41705 14.4043C8.48945 14.4161 8.5635 14.4133 8.6348 14.396C8.70609 14.3787 8.77317 14.3472 8.83204 14.3034L18 7.95669L27.168 14.3035C27.2269 14.3472 27.294 14.3787 27.3653 14.396C27.4365 14.4132 27.5106 14.416 27.5829 14.4041C27.6553 14.3922 27.7246 14.3658 27.7865 14.3266C27.8485 14.2874 27.902 14.2361 27.9437 14.1758C27.9855 14.1155 28.0147 14.0475 28.0296 13.9756C28.0445 13.9038 28.0448 13.8297 28.0305 13.7578C28.0162 13.6859 27.9876 13.6175 27.9463 13.5569C27.9051 13.4963 27.852 13.4445 27.7904 13.4048L18.3112 6.8423Z" fill="url(#paint3_linear_45_505)"></path><defs><linearGradient id="paint0_linear_45_505" x1="18" y1="1.35002" x2="18" y2="33.7061" gradientUnits="userSpaceOnUse"><stop stop-color="#E8FFF2"></stop><stop offset="1" stop-color="#C8FFE9"></stop></linearGradient><linearGradient id="paint1_linear_45_505" x1="18" y1="6.22158" x2="18" y2="27.6707" gradientUnits="userSpaceOnUse"><stop stop-color="#18C19F"></stop><stop offset="1" stop-color="#8BF3AF"></stop></linearGradient><linearGradient id="paint2_linear_45_505" x1="18" y1="6.22073" x2="18" y2="27.6699" gradientUnits="userSpaceOnUse"><stop stop-color="#18C19F"></stop><stop offset="1" stop-color="#8BF3AF"></stop></linearGradient><linearGradient id="paint3_linear_45_505" x1="18" y1="6.2212" x2="18" y2="27.6704" gradientUnits="userSpaceOnUse"><stop stop-color="#18C19F"></stop><stop offset="1" stop-color="#8BF3AF"></stop></linearGradient></defs></svg>